<?xml version="1.0" standalone="no"?>
<!DOCTYPE svg PUBLIC "-//W3C//DTD SVG 20010904//EN"
 "http://www.w3.org/TR/2001/REC-SVG-20010904/DTD/svg10.dtd">
<svg version="1.0" xmlns="http://www.w3.org/2000/svg"
 width="512.000000pt" height="512.000000pt" viewBox="0 0 512.000000 512.000000"
 preserveAspectRatio="xMidYMid meet">
<metadata>
Created by potrace 1.16, written by Peter Selinger 2001-2019
</metadata>
<g transform="translate(0.000000,512.000000) scale(0.100000,-0.100000)"
fill="#000000" stroke="none">
<path d="M2110 4961 c-91 -5 -108 -9 -128 -28 -21 -22 -57 -29 -125 -24 -15 1
-34 -5 -43 -13 -14 -15 -14 -16 3 -17 16 0 16 -1 -2 -8 -11 -5 -23 -4 -26 2
-4 5 -16 0 -28 -12 -19 -19 -29 -21 -71 -15 -48 6 -52 5 -84 -30 -19 -20 -43
-36 -53 -36 -10 0 -29 -9 -43 -20 -14 -11 -29 -20 -33 -20 -4 0 -27 -9 -50
-19 -24 -11 -54 -22 -67 -26 -32 -8 -54 -25 -69 -52 -6 -13 -19 -23 -27 -23
-8 0 -13 -3 -11 -8 3 -4 -17 -8 -45 -10 -54 -3 -86 -24 -93 -60 -6 -34 -54
-80 -76 -75 -15 4 -19 0 -19 -17 0 -20 -3 -22 -35 -16 -27 5 -37 3 -41 -9 -3
-8 -12 -15 -20 -15 -8 0 -14 -6 -14 -12 0 -7 -14 -21 -30 -30 -24 -14 -30 -24
-30 -51 0 -35 -12 -47 -49 -47 -23 0 -61 -41 -61 -66 0 -12 -11 -27 -25 -34
-14 -7 -25 -18 -24 -24 3 -22 -1 -33 -18 -54 -10 -11 -29 -34 -43 -51 -14 -16
-33 -30 -42 -31 -29 0 -68 -45 -68 -78 0 -19 -9 -38 -25 -53 -13 -13 -25 -30
-25 -36 0 -7 -6 -13 -13 -13 -15 0 -37 -61 -37 -101 0 -13 -9 -35 -20 -49 -11
-14 -20 -29 -20 -34 0 -5 -7 -17 -16 -27 -9 -10 -20 -32 -24 -51 -14 -53 -39
-115 -40 -95 0 9 -4 17 -9 17 -14 0 -34 -58 -28 -86 5 -27 -14 -87 -27 -84
-24 5 -31 -11 -29 -66 2 -36 -5 -82 -17 -119 -36 -115 -42 -219 -37 -640 5
-400 10 -453 45 -538 7 -16 12 -39 12 -52 0 -13 4 -35 10 -49 6 -17 6 -26 0
-26 -6 0 -10 -7 -10 -15 0 -18 17 -20 22 -3 3 7 7 5 11 -6 4 -10 3 -15 -3 -11
-6 3 -10 -1 -10 -9 0 -9 4 -16 8 -16 12 0 32 -47 32 -75 0 -13 6 -30 13 -37
25 -24 35 -53 30 -85 -4 -26 1 -37 26 -62 21 -20 31 -40 31 -60 0 -27 21 -61
38 -61 16 0 72 -97 66 -113 -4 -11 0 -19 10 -23 9 -3 16 -12 16 -20 0 -8 5
-14 10 -14 6 0 10 -12 10 -26 0 -26 53 -84 77 -84 6 0 15 -9 18 -20 4 -11 26
-41 50 -66 23 -25 46 -59 49 -75 4 -20 12 -29 24 -29 11 0 70 -52 138 -120 65
-66 122 -120 126 -120 7 0 37 -26 100 -86 9 -9 20 -29 23 -45 7 -31 29 -42 74
-37 29 3 121 -38 121 -54 0 -4 7 -8 15 -8 17 0 48 -30 53 -51 7 -29 39 -46 97
-51 33 -3 74 -13 90 -21 17 -8 41 -20 55 -26 33 -14 63 -33 73 -46 4 -6 10 -5
16 4 6 9 11 10 15 2 4 -6 16 -11 27 -11 11 0 17 -4 14 -10 -3 -5 1 -10 9 -10
9 0 16 -4 16 -10 0 -5 16 -12 35 -16 19 -3 35 -10 35 -15 0 -12 37 -11 42 1 2
6 26 4 63 -5 33 -8 79 -19 103 -25 57 -13 907 -13 964 0 24 6 70 17 103 25 37
9 61 11 63 5 5 -13 42 -13 42 0 0 6 4 10 10 10 5 0 26 11 47 25 32 23 44 25
90 19 42 -5 54 -3 59 9 3 8 16 18 30 21 13 4 37 20 54 36 33 33 32 32 105 31
59 -2 89 12 65 30 -13 9 -12 10 3 5 13 -4 20 0 24 14 3 11 9 20 14 20 10 0 44
27 68 53 8 9 23 17 32 17 10 0 19 3 21 8 4 8 105 82 114 82 3 0 22 11 42 25
20 14 42 25 49 25 15 0 83 67 83 82 0 6 41 52 91 102 50 50 103 103 118 119
14 15 34 30 43 33 9 3 20 13 23 24 3 11 19 21 38 25 52 11 77 42 77 92 0 37
12 75 30 93 3 3 18 25 35 50 16 25 40 56 52 69 13 13 23 30 23 37 0 8 5 14 10
14 6 0 10 11 10 25 0 24 35 86 53 93 4 2 7 17 7 33 0 20 8 34 25 45 20 13 25
24 23 50 -2 27 5 39 31 63 31 28 33 34 28 77 -4 39 -2 47 14 51 19 5 24 21 34
130 3 34 14 77 23 95 15 30 17 81 17 523 0 457 -1 493 -19 540 -10 28 -22 84
-25 125 -5 63 -9 75 -23 74 -20 -2 -21 2 -18 104 1 58 -1 72 -13 72 -11 0 -13
-7 -10 -22 3 -13 2 -20 -2 -16 -4 4 -8 21 -7 38 0 23 -4 30 -19 30 -10 0 -19
5 -19 11 0 6 -9 22 -20 36 -13 17 -20 41 -20 69 0 42 -7 50 -35 44 -5 -1 -7 1
-3 5 4 4 1 14 -7 22 -8 8 -15 30 -15 49 0 29 -9 41 -24 32 -2 -2 -13 8 -24 22
-15 18 -19 34 -14 59 5 31 3 34 -15 29 -15 -4 -19 -1 -16 11 2 10 -5 20 -19
26 -14 6 -22 17 -20 29 2 10 -5 26 -15 36 -10 10 -27 30 -38 45 -11 16 -39 48
-63 71 -24 24 -40 49 -37 55 8 13 -25 40 -42 34 -7 -2 -10 2 -6 11 3 8 2 14
-3 13 -24 -4 -32 4 -38 35 -5 25 -13 36 -31 40 -14 4 -25 11 -25 16 0 6 -6 10
-14 10 -17 0 -136 114 -136 129 0 16 -33 51 -47 51 -12 0 -36 17 -68 48 -8 6
-21 12 -30 12 -8 0 -18 7 -21 15 -4 8 -13 15 -21 15 -9 0 -29 15 -47 34 -21
23 -40 34 -59 34 -15 0 -35 6 -45 14 -15 13 -73 47 -162 94 -14 7 -43 21 -65
31 -22 9 -44 21 -50 25 -5 5 -21 17 -34 28 -16 13 -39 20 -68 20 -24 0 -51 4
-61 9 -9 5 -42 17 -72 26 -30 10 -60 22 -67 27 -7 6 -17 7 -22 3 -6 -3 -8 0
-5 9 9 24 -31 37 -109 37 -40 0 -250 1 -467 3 -217 1 -442 0 -500 -3z m800
-22 c94 -13 194 -34 280 -58 41 -12 92 -26 113 -31 21 -6 45 -14 55 -19 9 -5
44 -19 77 -31 179 -67 488 -243 595 -340 19 -17 51 -42 70 -55 74 -49 304
-290 392 -410 4 -5 18 -23 32 -40 40 -51 150 -244 211 -370 73 -154 68 -141
109 -270 61 -196 68 -219 76 -265 4 -25 14 -72 21 -105 10 -44 14 -152 14
-395 -1 -325 -1 -339 -27 -460 -15 -69 -37 -156 -48 -195 -12 -38 -25 -86 -30
-106 -5 -19 -16 -49 -25 -65 -8 -16 -15 -34 -15 -41 0 -6 -7 -24 -14 -40 -8
-15 -41 -82 -72 -148 -32 -66 -66 -131 -77 -145 -10 -14 -25 -38 -33 -55 -56
-117 -181 -273 -351 -440 -144 -141 -187 -180 -265 -239 -67 -51 -147 -106
-154 -106 -3 0 -43 -22 -88 -49 -44 -27 -108 -60 -141 -74 -33 -14 -84 -37
-112 -51 -29 -14 -56 -26 -60 -26 -5 0 -21 -7 -36 -15 -30 -16 -257 -80 -392
-111 -70 -17 -125 -19 -450 -19 -403 0 -435 3 -665 71 -47 14 -104 30 -127 35
-24 6 -43 15 -43 20 0 5 -7 9 -16 9 -8 0 -36 9 -62 21 -26 11 -67 30 -92 41
-25 10 -52 23 -61 28 -8 4 -40 21 -70 36 -30 15 -68 38 -85 51 -17 13 -35 23
-40 23 -5 0 -36 18 -69 40 -55 36 -71 47 -125 90 -10 8 -39 31 -64 50 -124 94
-355 346 -483 527 -60 85 -185 320 -246 463 -44 105 -92 278 -134 485 -27 132
-26 682 0 800 10 44 28 121 39 170 21 91 53 204 69 240 5 11 18 45 29 75 25
66 54 131 83 185 11 22 28 53 36 70 9 16 18 32 21 35 9 9 29 44 43 75 12 26
147 220 188 270 55 67 114 131 183 199 105 101 387 320 449 346 23 10 58 31
67 40 7 7 238 120 245 120 4 0 21 6 38 14 42 18 137 50 212 71 33 9 80 22 105
30 25 7 63 16 85 20 22 3 61 11 87 16 121 27 581 32 748 8z"/>
<path d="M2395 4870 c-234 -24 -276 -30 -340 -45 -38 -9 -79 -21 -90 -25 -11
-5 -36 -12 -55 -16 -19 -3 -39 -10 -45 -14 -5 -4 -44 -17 -85 -30 -63 -20
-259 -105 -324 -141 -68 -38 -90 -51 -128 -76 -24 -15 -47 -32 -53 -36 -5 -4
-44 -32 -85 -63 -123 -89 -149 -113 -280 -244 -126 -125 -163 -168 -211 -242
-15 -22 -30 -43 -35 -47 -23 -16 -164 -255 -164 -278 0 -6 -3 -13 -8 -15 -13
-5 -72 -137 -112 -247 -76 -213 -89 -266 -124 -516 -18 -123 -22 -454 -6 -521
5 -23 14 -81 19 -129 16 -133 77 -364 127 -472 7 -17 14 -34 14 -38 0 -26 187
-377 225 -422 34 -41 85 -111 85 -117 0 -18 312 -335 384 -391 21 -16 52 -41
68 -54 64 -52 219 -148 319 -198 253 -126 402 -180 599 -214 30 -5 73 -15 95
-20 61 -17 598 -24 681 -9 38 6 98 16 134 21 36 4 89 15 118 23 28 9 78 23
110 32 31 8 73 22 92 29 19 8 65 25 101 39 37 14 91 38 120 52 182 91 211 106
219 114 3 3 28 19 55 35 28 15 52 31 55 35 3 3 41 33 85 65 157 115 352 309
467 466 90 122 160 236 220 359 59 120 148 348 148 378 0 10 4 22 9 28 10 9
26 77 42 179 6 33 15 80 21 105 6 25 13 155 16 289 3 193 1 269 -12 360 -26
179 -98 456 -136 523 -6 10 -10 23 -10 29 0 18 -145 306 -190 379 -75 119
-216 296 -311 389 -130 128 -237 219 -329 281 -12 8 -33 23 -45 33 -13 9 -26
17 -29 17 -3 0 -25 13 -49 29 -69 47 -343 181 -369 181 -8 0 -18 4 -23 8 -20
17 -122 48 -351 107 -33 8 -83 15 -110 15 -27 0 -67 5 -88 10 -57 13 -338 20
-431 10z m-266 -326 c20 -14 22 -23 18 -58 -4 -29 -1 -46 10 -58 15 -17 15
-18 0 -18 -9 0 -20 7 -25 16 -6 10 -19 14 -38 12 -25 -3 -29 -7 -27 -30 3 -46
-24 -34 -32 15 -4 23 -12 57 -18 74 -13 38 -9 43 35 53 49 12 51 11 77 -6z
m881 -99 c84 -18 158 -39 229 -66 77 -28 321 -151 321 -161 0 -4 5 -8 12 -8
11 0 129 -73 154 -95 7 -5 29 -23 50 -40 90 -73 169 -148 240 -232 27 -31 60
-68 73 -82 13 -14 39 -51 59 -81 20 -30 40 -56 44 -58 5 -2 8 -10 8 -17 0 -8
7 -20 14 -28 18 -17 112 -199 144 -277 13 -30 27 -64 32 -75 44 -101 99 -370
107 -517 4 -85 3 -98 -11 -98 -19 0 -20 6 -40 181 -8 75 -20 158 -27 185 -19
82 -49 188 -59 209 -5 11 -21 49 -35 85 -27 67 -96 211 -105 220 -3 3 -11 16
-18 30 -31 60 -79 133 -114 171 -10 10 -18 22 -18 25 0 28 -330 354 -358 354
-6 0 -12 3 -14 8 -16 36 -312 203 -433 244 -33 11 -64 24 -70 28 -17 12 -177
58 -228 65 -48 7 -63 17 -52 35 8 13 16 12 95 -5z m-1028 -1237 l3 -363 218
-3 c133 -1 217 -6 217 -12 0 -6 -86 -10 -230 -10 l-230 0 0 375 c0 240 4 375
10 375 6 0 11 -132 12 -362z m708 -91 c0 -128 5 -260 11 -293 25 -139 108
-204 259 -204 66 0 87 4 131 27 56 29 101 87 119 153 5 19 10 151 10 293 0
222 2 257 15 257 13 0 15 -34 15 -242 0 -133 -4 -255 -9 -272 -5 -17 -15 -51
-21 -75 -15 -56 -91 -135 -146 -151 -74 -21 -137 -23 -204 -5 -79 21 -132 61
-168 129 l-27 51 -3 283 c-2 195 0 282 7 282 8 0 11 -74 11 -233z m-2015 -251
c11 -16 15 -41 13 -78 l-3 -53 -65 3 c-100 5 -103 7 -97 58 2 24 12 55 21 69
14 21 24 25 66 25 41 0 52 -4 65 -24z m1265 -374 c0 -4 13 -23 29 -42 16 -19
77 -97 135 -172 58 -76 110 -143 116 -150 10 -12 45 -59 93 -121 12 -16 27
-34 32 -40 6 -7 24 -30 40 -52 70 -93 65 -113 65 255 0 287 2 330 15 330 13 0
15 -46 15 -355 0 -301 -2 -355 -14 -355 -8 0 -25 15 -37 33 -12 17 -27 37 -33
42 -6 6 -31 37 -55 70 -25 33 -50 65 -57 70 -6 6 -28 35 -49 65 -21 30 -43 60
-49 65 -18 15 -217 275 -223 291 -3 8 -11 14 -19 14 -12 0 -14 -54 -14 -325 0
-210 -4 -325 -10 -325 -11 0 -15 692 -3 703 9 9 23 9 23 -1z m1070 -299 c23
-49 57 -120 76 -159 19 -39 34 -74 34 -77 0 -6 100 -218 141 -300 32 -64 37
-89 14 -81 -8 4 -15 10 -15 16 0 5 -15 41 -34 81 -18 40 -36 82 -40 95 -7 22
-8 22 -230 22 l-222 0 -26 -57 c-14 -32 -36 -80 -48 -108 -27 -60 -26 -59 -39
-51 -7 5 0 27 19 63 17 31 30 59 30 64 0 7 46 105 138 299 9 19 20 37 25 38 4
2 7 8 7 14 0 16 75 189 94 216 18 26 36 9 76 -75z m-2234 -295 c102 -272 266
-525 453 -702 23 -23 58 -55 77 -73 73 -69 206 -166 284 -205 14 -7 27 -15 30
-19 21 -26 381 -172 455 -184 22 -4 65 -13 95 -20 101 -25 359 -48 463 -41 84
5 98 4 104 -10 3 -9 0 -20 -8 -25 -18 -11 -282 -11 -374 1 -294 37 -572 129
-773 257 -28 19 -60 37 -70 40 -9 4 -21 11 -27 15 -5 4 -53 40 -105 80 -52 39
-144 121 -204 182 -105 107 -266 314 -266 342 0 8 -4 14 -9 14 -9 0 -144 267
-156 310 -4 14 -11 30 -15 35 -11 16 -20 61 -13 69 18 17 34 -1 59 -66z m3096
-732 c39 -47 9 -112 -55 -123 -48 -7 -87 24 -87 71 1 76 95 111 142 52z m-828
-402 c22 -22 29 -55 17 -86 -10 -28 -88 -65 -114 -55 -16 6 -43 129 -32 146
10 17 111 13 129 -5z"/>
<path d="M2943 2228 c-12 -16 -53 -102 -53 -111 0 -4 -31 -71 -70 -148 -38
-78 -70 -146 -70 -150 0 -5 90 -9 200 -9 153 0 200 3 200 13 0 16 -73 181 -82
185 -5 2 -8 9 -8 15 0 7 -18 49 -40 95 -22 46 -40 87 -40 91 0 5 -6 14 -14 20
-10 8 -16 8 -23 -1z"/>
</g>
</svg>
